Coordinates
version=1
nRows=29
nColumns=24
inDegrees=yes

Units are S.I. units (second, meters, Newtons, ...)
Angles are in degrees.

endheader
time	pelvis_tilt	pelvis_list	pelvis_rotation	pelvis_tx	pelvis_ty	pelvis_tz	hip_flexion_r	hip_adduction_r	hip_rotation_r	knee_angle_r	ankle_angle_r	subtalar_angle_r	mtp_angle_r	hip_flexion_l	hip_adduction_l	hip_rotation_l	knee_angle_l	ankle_angle_l	subtalar_angle_l	mtp_angle_l	lumbar_extension	lumbar_bending	lumbar_rotation
      1.04983333	      6.95272484	      2.00252510	     -1.11593863	     -0.14897904	      0.99522437	      0.33448893	    -28.70682515	      0.47403909	     -4.06460261	     -0.24549708	     14.70625236	     -2.11965630	     -3.18685605	     13.25195805	      3.41778846	      2.32466748	      5.27167108	     -2.30494408	    -10.06300682	     -2.38873132	    -21.24247039	      2.41629419	      7.76566302
      1.05400000	      7.01061366	      2.13327330	     -1.18590357	     -0.14305138	      0.99449454	      0.33431147	    -28.86610560	      0.26100714	     -4.21124938	     -0.78833719	     14.88827711	     -1.82272585	     -3.06508478	     13.18195129	      3.62020052	      2.48500090	      5.22620659	     -2.29739716	    -10.23201167	     -2.32376688	    -21.29062890	      2.23338800	      7.77774038
      1.05816667	      7.06026513	      2.27098807	     -1.24468013	     -0.13710198	      0.99379566	      0.33411489	    -28.99575230	      0.04341946	     -4.36623447	     -1.37602021	     15.04907816	     -1.52794013	     -2.92205210	     13.14002995	      3.83501822	      2.66509914	      5.06701917	     -2.33267865	    -10.46590289	     -2.25482951	    -21.32320152	      2.03616422	      7.77529313
      1.06233333	      7.12422766	      2.43152585	     -1.30319975	     -0.13112155	      0.99316541	      0.33391282	    -29.12771946	     -0.19978991	     -4.52734630	     -1.99062028	     15.19535394	     -1.23245567	     -2.75562063	     13.09384691	      4.07652634	      2.84608621	      4.81322477	     -2.42350896	    -10.75062614	     -2.18047468	    -21.36189886	      1.80846498	      7.75771332
      1.06650000	      7.17338997	      2.60269245	     -1.35199785	     -0.12510821	      0.99255389	      0.33368617	    -29.22942556	     -0.45147074	     -4.68442028	     -2.63673511	     15.30918634	     -0.96831325	     -2.55983681	     13.07852849	      4.33449387	      3.03827264	      4.46496574	     -2.56119809	    -11.09504714	     -2.09871324	    -21.38631436	      1.58289718	      7.72681131
      1.07066667	      7.23002542	      2.79296277	     -1.39734238	     -0.11906282	      0.99199625	      0.33343541	    -29.32385506	     -0.72413108	     -4.84517472	     -3.31527683	     15.40176934	     -0.71209214	     -2.33607591	     13.06485008	      4.61669608	      3.23361290	      4.03647612	     -2.75298638	    -11.48401889	     -2.00961102	    -21.42059604	      1.33263442	      7.68025190
      1.07483333	      7.27152461	      2.98006105	     -1.43057607	     -0.11298534	      0.99146293	      0.33316771	    -29.39077880	     -0.98854580	     -4.98760257	     -4.01804253	     15.44994288	     -0.49690944	     -2.07975986	     13.08012320	      4.89964294	      3.42936027	      3.53011216	     -3.00032947	    -11.91488058	     -1.91345028	    -21.41579103	      1.09100996	      7.62361906
      1.07900000	      7.30486684	      3.18167679	     -1.46083026	     -0.10687772	      0.99096476	      0.33288518	    -29.43292224	     -1.26794566	     -5.12593991	     -4.75225390	     15.46173441	     -0.31233344	     -1.79174226	     13.11687827	      5.20079119	      3.61423810	      2.94951608	     -3.29757463	    -12.37856526	     -1.81197738	    -21.40573148	      0.83295053	      7.55403612
      1.08316667	      7.33811818	      3.38926863	     -1.48045666	     -0.10074651	      0.99050768	      0.33257982	    -29.46379774	     -1.54884205	     -5.25690748	     -5.50869573	     15.42771980	     -0.16438586	     -1.46099476	     13.16489256	      5.51285683	      3.79402481	      2.30672056	     -3.64315922	    -12.87213965	     -1.70383056	    -21.39533853	      0.57042038	      7.46831969
      1.08733333	      7.35086106	      3.59586046	     -1.48992550	     -0.09458900	      0.99007119	      0.33224691	    -29.45687534	     -1.82444588	     -5.36634610	     -6.29545523	     15.34660131	     -0.06446151	     -1.07385088	     13.24732921	      5.82800788	      3.96880157	      1.60221512	     -4.02615747	    -13.39249461	     -1.58840728	    -21.35555419	      0.31402606	      7.37424206
      1.09150000	      7.36933642	      3.80895845	     -1.49414852	     -0.08840896	      0.98968450	      0.33190113	    -29.44309343	     -2.10379176	     -5.46771804	     -7.10607423	     15.21126411	     -0.00043878	     -0.60642812	     13.32869986	      6.15197007	      4.13786352	      0.85856066	     -4.46431539	    -13.94662516	     -1.46492167	    -21.32657099	      0.05771439	      7.26593923
      1.09566667	      7.42681469	      4.01676188	     -1.50029352	     -0.08222910	      0.98939593	      0.33158720	    -29.47772591	     -2.36720871	     -5.47943386	     -7.87948111	     14.89250848	     -0.22430316	      5.15133186	     13.38086749	      6.46903627	      4.26167842	      0.06533514	     -4.89880828	    -14.46076734	     -0.10279573	    -21.34947399	     -0.21854475	      7.19539888
      1.09983333	      7.39822040	      4.22680838	     -1.47804004	     -0.07598981	      0.98905016	      0.33119139	    -29.37852153	     -2.63131979	     -5.57517533	     -8.75405635	     14.62664039	     -0.20214293	      5.21603963	     13.55099240	      6.79378888	      4.33634670	     -0.80753126	     -5.30938981	    -14.86682598	     -0.12245126	    -21.24728966	     -0.46702092	      7.05614685
      1.10400000	      7.39077347	      4.43012331	     -1.45832085	     -0.06976141	      0.98877614	      0.33079502	    -29.28335412	     -2.88604934	     -5.62516607	     -9.65756010	     14.33245709	     -0.27823975	      5.34399884	     13.68868480	      7.11291385	      4.45472393	     -1.67540718	     -5.77721144	    -15.39088663	     -0.14402304	    -21.18122816	     -0.71007347	      6.92519654
      1.10816667	      7.38183593	      4.62673727	     -1.43148310	     -0.06352130	      0.98854804	      0.33039318	    -29.16915726	     -3.12719379	     -5.64748639	    -10.58862923	     13.96822173	     -0.41003666	      5.54196755	     13.83012732	      7.42484763	      4.57111131	     -2.56359244	     -6.24803172	    -15.91470495	     -0.16945137	    -21.11237679	     -0.94718075	      6.79311891
      1.11233333	      7.40274423	      4.85086215	     -1.40803447	     -0.05723514	      0.98840595	      0.33001360	    -29.08711966	     -3.38952278	     -5.65276112	    -11.51048568	     13.52835209	     -0.61862755	      5.66893272	     13.95207648	      7.76192277	      4.59533439	     -3.49793177	     -6.62110306	    -16.27645681	     -0.18840398	    -21.08019299	     -1.24683172	      6.67744794
      1.11650000	      7.35448791	      5.00125086	     -1.36696183	     -0.05100880	      0.98823396	      0.32955779	    -28.85996192	     -3.58040522	     -5.64891406	    -12.55998212	     13.04133727	     -0.83814415	      5.98232804	     14.13099388	      8.02918109	      4.75037810	     -4.40057926	     -7.10373414	    -16.84746442	     -0.22780573	    -20.95822413	     -1.39664420	      6.51966889
      1.12066667	      7.33588889	      5.16478217	     -1.30991533	     -0.04476743	      0.98813888	      0.32909299	    -28.67389917	     -3.76754289	     -5.62205336	    -13.57802926	     12.48600635	     -1.09825727	      6.61053277	     14.29464209	      8.31534086	      4.88206765	     -5.35706498	     -7.53656276	    -17.42210325	     -0.30541027	    -20.88982404	     -1.58638432	      6.35815620
      1.12483333	      7.43176135	      5.38061840	     -1.30366439	     -0.03846648	      0.98825311	      0.32868866	    -28.58621131	     -4.03311780	     -5.64156930	    -14.61344017	     11.69376416	     -1.46468679	     13.07631741	     14.26753442	      8.64653890	      5.00137304	     -6.17828321	     -7.96533411	    -17.95569652	     -1.09621465	    -20.94321427	     -1.84975947	      6.15837861
      1.12900000	      7.37879838	      5.53897144	     -1.25811139	     -0.03220315	      0.98820391	      0.32823403	    -28.27270432	     -4.22627365	     -5.63327886	    -15.79091187	     11.04191710	     -1.77838180	     13.15575053	     14.48235982	      8.91157526	      4.98589599	     -7.19088458	     -8.10086495	    -18.09974603	     -1.10888926	    -20.81801952	     -2.05225356	      6.10456643
      1.13316667	      7.37164958	      5.69183386	     -1.22413933	     -0.02594772	      0.98827212	      0.32778702	    -27.98953542	     -4.41462950	     -5.59377703	    -16.97825240	     10.27970510	     -2.13985287	     13.30604824	     14.61787654	      9.17259652	      5.01818171	     -8.14858141	     -8.27869602	    -18.37915558	     -1.13910867	    -20.75366089	     -2.23517281	      5.96890683
      1.13733333	      7.42224882	      5.84290086	     -1.20140043	     -0.01969527	      0.98846843	      0.32735188	    -27.75167274	     -4.60330286	     -5.54730078	    -18.16063348	      9.33898528	     -2.61028622	     17.32687258	     14.66815342	      9.43272977	      5.06298951	     -9.06921183	     -8.42251023	    -18.69366186	     -1.90273766	    -20.75795983	     -2.39997150	      5.72690649
      1.14150000	      7.43654443	      6.01776413	     -1.17450900	     -0.01343552	      0.98862949	      0.32688783	    -27.41706598	     -4.82912376	     -5.57440348	    -19.46541775	      8.48256271	     -2.90030857	     17.36973459	     14.75616614	      9.71864109	      5.11311078	    -10.00036313	     -8.44754677	    -18.92378889	     -1.91226975	    -20.72737371	     -2.64084084	      5.68844702
      1.14566667	      7.43654066	      6.13781260	     -1.15691281	     -0.00722422	      0.98883154	      0.32642353	    -27.01548053	     -5.00324688	     -5.54707036	    -20.83201498	      7.51682189	     -3.32232289	     17.49972283	     14.84692066	      9.94314769	      5.15244846	    -10.91067867	     -8.44003779	    -19.15523600	     -1.94504207	    -20.66105595	     -2.77099480	      5.57463302
      1.14983333	      7.47561790	      6.27934432	     -1.15036403	     -0.00100524	      0.98911634	      0.32597699	    -26.63228417	     -5.20689260	     -5.54264068	    -22.22120074	      6.46995453	     -3.72768724	     17.68229051	     14.87690532	     10.18828879	      5.18605054	    -11.79283799	     -8.34795802	    -19.34307960	     -1.99231679	    -20.64694234	     -2.94032295	      5.44927077
      1.15400000	      7.52266032	      6.40905862	     -1.15519063	      0.00517804	      0.98943951	      0.32552864	    -26.21680744	     -5.41278702	     -5.54468725	    -23.64914676	      5.31334531	     -4.15197510	     22.41096556	     14.90072871	     10.41926787	      5.18915577	    -12.69248773	     -8.11881764	    -19.46911473	     -3.22937557	    -20.65855021	     -3.10568514	      5.36906161
      1.15816667	      7.60232496	      6.55697276	     -1.16992193	      0.01136386	      0.98984292	      0.32508838	    -25.80184995	     -5.64680121	     -5.57758739	    -25.12989556	      4.13142173	     -4.55446370	     22.44410218	     14.83974444	     10.66964274	      5.23448800	    -13.48928580	     -7.92735944	    -19.64582499	     -3.23437943	    -20.68658274	     -3.28402803	      5.22261371
      1.16233333	      7.65222767	      6.67111471	     -1.18777783	      0.01749331	      0.99023053	      0.32465690	    -25.31754481	     -5.84727823	     -5.56095842	    -26.64473827	      2.88435429	     -4.99677921	     22.55625346	     14.82714401	     10.88086865	      5.24178447	    -14.33066276	     -7.62358191	    -19.77200582	     -3.26417146	    -20.70112882	     -3.41335013	      5.09585177
      1.16650000	      7.73259806	      6.81373011	     -1.22132188	      0.02362230	      0.99068360	      0.32422429	    -24.82899604	     -6.10126382	     -5.60814118	    -28.20821346	      1.57850105	     -5.40012933	     22.67749643	     14.73582391	     11.12018272	      5.25749334	    -15.07427784	     -7.29350114	    -19.86668590	     -3.30127519	    -20.73312793	     -3.57210094	      4.99017247
